<svg version="1.1" xmlns="http://www.w3.org/2000/svg" style="display: block;" viewBox="0 0 2048 2048" width="1024" height="1024" preserveAspectRatio="none">
<defs>
	<linearGradient id="Gradient1" gradientUnits="userSpaceOnUse" x1="1366.62" y1="1194.16" x2="575.411" y2="690.354">
		<stop class="stop0" offset="0" stop-opacity="1" stop-color="rgb(16,25,35)"/>
		<stop class="stop1" offset="1" stop-opacity="1" stop-color="rgb(49,58,66)"/>
	</linearGradient>
</defs>
<path transform="translate(0,0)" fill="url(#Gradient1)" d="M 1330.96 348.321 C 1358.53 348.159 1386.11 348.174 1413.68 348.367 C 1411.87 369.505 1413.05 407.903 1413.14 430.144 L 1358.28 430.273 C 1337.65 450.962 1316.87 471.494 1295.93 491.867 C 1322.16 491.768 1368.3 490.181 1393 492.149 C 1392.94 485.25 1392.73 477.756 1392.87 470.911 L 1474.24 470.955 C 1474.62 498.26 1474.82 525.568 1474.82 552.876 L 1392.94 552.808 C 1392.7 546.979 1392.12 538.542 1392.35 532.934 C 1339 531.553 1267.97 531.273 1214.41 532.912 C 1201.2 545.476 1187.76 559.054 1174.43 571.276 C 1241.07 598.431 1308.93 624.17 1375.91 650.605 L 1438.59 675.602 C 1447.74 679.308 1464.45 686.764 1473.05 689.241 C 1476.08 692.224 1474.65 773.589 1474.8 783.73 C 1475.88 856.812 1473.44 930.678 1474.85 1003.71 C 1451.87 1001.44 1414.69 1003.97 1390.15 1003.17 L 1269.22 1225.81 L 1246.01 1268.53 C 1242.66 1274.65 1230.93 1295.2 1229.84 1301.16 C 1227.99 1311.27 1228.64 1333.87 1228.71 1344.82 C 1228.87 1368.79 1228.53 1393.24 1229.02 1417.1 C 1182 1434.59 1133.6 1456.46 1086.45 1474.07 C 1072.77 1479.18 1036.86 1495.33 1023.93 1497.93 C 1007.39 1493.1 977.114 1480.08 959.634 1473.13 L 819.062 1416.24 L 819.151 1305.92 C 819.16 1289.37 819.626 1268.91 818.473 1252.74 C 818.063 1246.99 809.204 1224.79 806.719 1218.14 C 798.819 1196.91 790.812 1175.73 782.698 1154.59 C 763.798 1105.09 745.324 1051.89 725.573 1003.12 C 675.761 1003.79 622.888 1001.9 573.537 1003.68 L 573.967 788.838 C 573.947 763.4 575.294 714.055 573.048 690.164 L 809.65 596.469 C 828.144 589.742 847.589 580.262 866.269 574.211 C 916.994 553.103 972.488 532.86 1024.01 512.545 C 1058.63 524.919 1098.74 541.413 1133.14 555.09 C 1149.37 538.891 1180.67 505.739 1197.01 492.127 C 1210.75 491.482 1224.02 491.749 1237.71 491.544 C 1248.02 483.205 1267.92 462.667 1278.45 452.084 C 1295.03 435.422 1315.4 416.718 1330.97 399.916 C 1330.83 382.718 1330.82 365.519 1330.96 348.321 z M 1330.97 399.916 C 1315.4 416.718 1295.03 435.422 1278.45 452.084 C 1267.92 462.667 1248.02 483.205 1237.71 491.544 C 1224.02 491.749 1210.75 491.482 1197.01 492.127 C 1180.67 505.739 1149.37 538.891 1133.14 555.09 L 1049.61 637.677 C 1042.96 644.273 1015.12 672.25 1008.8 676.753 C 1002.03 681.575 958.931 696.08 949.463 699.434 L 820.922 744.672 C 804.776 750.323 772.768 762.878 757.615 766.753 C 757.626 831.432 756.871 897.873 757.739 962.394 C 769.224 967.353 786.457 975.178 798.327 978.871 C 799.082 917.807 797.713 856.33 798.408 795.157 C 801.009 794.329 808.905 792.041 811.004 791.117 C 845.082 780.96 890.307 763.217 925.138 751.056 L 988.921 728.693 C 1027.44 715.112 1026.49 718.05 1055.62 689.655 C 1071.43 674.37 1087.06 658.91 1102.52 643.279 C 1125.81 619.922 1152.47 595.653 1174.43 571.276 C 1187.76 559.054 1201.2 545.476 1214.41 532.912 C 1267.97 531.273 1339 531.553 1392.35 532.934 C 1392.12 538.542 1392.7 546.979 1392.94 552.808 L 1474.82 552.876 C 1474.82 525.568 1474.62 498.26 1474.24 470.955 L 1392.87 470.911 C 1392.73 477.756 1392.94 485.25 1393 492.149 C 1368.3 490.181 1322.16 491.768 1295.93 491.867 C 1316.87 471.494 1337.65 450.962 1358.28 430.273 L 1413.14 430.144 C 1413.05 407.903 1411.87 369.505 1413.68 348.367 C 1386.11 348.174 1358.53 348.159 1330.96 348.321 C 1330.82 365.519 1330.83 382.718 1330.97 399.916 z"/>
<path transform="translate(0,0)" fill="rgb(59,69,76)" d="M 1174.43 571.276 C 1241.07 598.431 1308.93 624.17 1375.91 650.605 L 1438.59 675.602 C 1447.74 679.308 1464.45 686.764 1473.05 689.241 C 1468.56 693.888 1308.26 760.911 1290.85 767.346 L 1291.01 859.886 C 1291.02 866.204 1291.39 896.256 1290.3 899.984 L 1290.22 900.88 C 1275.89 905.343 1263.19 911.861 1249.92 916.222 C 1248.02 879.563 1249.42 832.21 1249.47 794.773 L 1237.87 791.023 C 1233.06 794.204 1192.55 810.802 1184.13 814.551 C 1131.82 837.84 1076 858.724 1023.95 882.436 L 870.088 817.101 C 858.571 812.175 818.445 796.147 811.004 791.117 C 845.082 780.96 890.307 763.217 925.138 751.056 L 988.921 728.693 C 1027.44 715.112 1026.49 718.05 1055.62 689.655 C 1071.43 674.37 1087.06 658.91 1102.52 643.279 C 1125.81 619.922 1152.47 595.653 1174.43 571.276 z"/>
<path transform="translate(0,0)" fill="rgb(212,50,54)" d="M 1129.76 704.384 C 1179.67 725.954 1238.83 748.929 1290.19 767.711 L 1290.21 854.394 C 1290.22 868.284 1289.7 886.322 1290.3 899.984 L 1290.22 900.88 C 1275.89 905.343 1263.19 911.861 1249.92 916.222 C 1248.02 879.563 1249.42 832.21 1249.47 794.773 L 1237.87 791.023 C 1207.65 780.04 1176.64 767.123 1146.52 755.434 C 1134.04 750.592 1108.15 741.635 1097.16 736.185 C 1106.98 725.386 1119.02 714.494 1129.76 704.384 z"/>
<path transform="translate(0,0)" fill="rgb(212,50,54)" d="M 1330.96 348.321 C 1358.53 348.159 1386.11 348.174 1413.68 348.367 C 1411.87 369.505 1413.05 407.903 1413.14 430.144 L 1358.28 430.273 C 1337.65 450.962 1316.87 471.494 1295.93 491.867 C 1322.16 491.768 1368.3 490.181 1393 492.149 C 1392.94 485.25 1392.73 477.756 1392.87 470.911 L 1474.24 470.955 C 1474.62 498.26 1474.82 525.568 1474.82 552.876 L 1392.94 552.808 C 1392.7 546.979 1392.12 538.542 1392.35 532.934 C 1339 531.553 1267.97 531.273 1214.41 532.912 C 1201.2 545.476 1187.76 559.054 1174.43 571.276 C 1152.47 595.653 1125.81 619.922 1102.52 643.279 C 1087.06 658.91 1071.43 674.37 1055.62 689.655 C 1026.49 718.05 1027.44 715.112 988.921 728.693 L 925.138 751.056 C 890.307 763.217 845.082 780.96 811.004 791.117 C 808.905 792.041 801.009 794.329 798.408 795.157 C 797.713 856.33 799.082 917.807 798.327 978.871 C 786.457 975.178 769.224 967.353 757.739 962.394 C 756.871 897.873 757.626 831.432 757.615 766.753 C 772.768 762.878 804.776 750.323 820.922 744.672 L 949.463 699.434 C 958.931 696.08 1002.03 681.575 1008.8 676.753 C 1015.12 672.25 1042.96 644.273 1049.61 637.677 L 1133.14 555.09 C 1149.37 538.891 1180.67 505.739 1197.01 492.127 C 1210.75 491.482 1224.02 491.749 1237.71 491.544 C 1248.02 483.205 1267.92 462.667 1278.45 452.084 C 1295.03 435.422 1315.4 416.718 1330.97 399.916 C 1330.83 382.718 1330.82 365.519 1330.96 348.321 z M 1423.13 522.062 C 1427.66 522.123 1440.61 522.636 1444.47 522.288 C 1443.78 515.449 1444.02 508.079 1444.06 501.155 L 1423.09 501.382 L 1423.13 522.062 z M 1361.95 399.068 C 1365.57 399.059 1379.76 399.299 1382.31 398.552 L 1382.52 378.85 L 1361.95 378.89 L 1361.95 399.068 z"/>
<path transform="translate(0,0)" fill="rgb(59,69,76)" d="M 1290.22 900.88 L 1290.2 1067.68 C 1251.42 1084.76 1206.84 1102.68 1167.08 1118.02 L 1167.09 1160.98 C 1154.61 1166.35 1137.97 1172.5 1126.39 1178.16 C 1128.22 1109.46 1126.56 1036.58 1126.91 967.395 C 1157.16 955.261 1187.33 942.923 1217.41 930.38 C 1222.13 928.405 1246.64 918.504 1249.92 916.222 C 1263.19 911.861 1275.89 905.343 1290.22 900.88 z"/>
<path transform="translate(0,0)" fill="rgb(26,35,45)" d="M 1247.76 962.006 L 1248.95 962.502 C 1251.19 970.003 1249.52 1027.35 1249.31 1039.78 C 1222.9 1051.26 1196.25 1062.19 1169.38 1072.57 L 1168.3 1072.65 C 1166.29 1070.05 1167.03 1004.32 1167.03 994.96 C 1193.41 985.029 1221.37 972.706 1247.76 962.006 z"/>
<path transform="translate(0,0)" fill="rgb(212,50,54)" d="M 809.65 596.469 C 828.144 589.742 847.589 580.262 866.269 574.211 C 872.456 579.133 890.2 585.124 898.097 588.674 C 926.365 601.384 960.318 611.902 988.122 624.634 C 977.56 635.068 966.866 645.368 956.043 655.532 C 940.215 648.795 813.686 600.402 809.65 596.469 z"/>
<path transform="translate(0,0)" fill="rgb(59,69,76)" d="M 839.986 954.356 C 862.594 961.909 898.135 978.185 921.545 987.922 C 922.206 1050.36 921.629 1114.02 921.591 1176.55 L 882.357 1159.86 C 868.433 1154.42 853.793 1148.02 839.918 1142.25 L 840.04 1098.3 C 852.981 1104.07 866.855 1109.4 880.065 1114.68 C 881.427 1083.22 880.885 1046.71 880.346 1015.02 C 867.674 1009.12 852.864 1003.39 839.809 998.022 L 839.986 954.356 z"/>
<path transform="translate(0,0)" fill="rgb(59,69,76)" d="M 880.366 1225.27 C 888.365 1227.45 911.526 1237.65 921.44 1241.1 L 921.931 1329 C 914.318 1325.67 907.861 1323.18 900.037 1320.35 C 886.927 1314.59 873.673 1309.16 860.288 1304.08 L 860.658 1259.51 C 867.367 1262.32 874.111 1265.04 880.888 1267.68 C 880.801 1253.54 880.627 1239.41 880.366 1225.27 z"/>
<path transform="translate(0,0)" fill="rgb(59,69,76)" d="M 1186.65 1197.05 C 1187.95 1200.03 1187.35 1255.38 1187.63 1263.81 C 1167.7 1271.7 1147.83 1279.76 1128.04 1287.99 L 1127.12 1287.14 C 1125.92 1278.88 1126.78 1233.79 1126.79 1222.04 C 1145.42 1213.51 1167.54 1204.87 1186.65 1197.05 z"/>
<path transform="translate(0,0)" fill="rgb(212,50,54)" d="M 327.967 819.08 L 408.987 819.155 C 409.598 835.873 409.095 855.237 409.087 872.158 C 417.987 882.533 442.972 905.574 453.772 916.177 L 542.286 1003.55 L 573.537 1003.68 C 622.888 1001.9 675.761 1003.79 725.573 1003.12 C 745.324 1051.89 763.798 1105.09 782.698 1154.59 C 790.812 1175.73 798.819 1196.91 806.719 1218.14 C 809.204 1224.79 818.063 1246.99 818.473 1252.74 C 819.626 1268.91 819.16 1289.37 819.151 1305.92 L 819.062 1416.24 L 819.038 1455.36 C 812.307 1462.35 805.436 1469.21 798.43 1475.93 C 799.431 1523.25 798.123 1571.12 799.004 1618.26 C 805.398 1618.22 812.716 1618.01 819.031 1618.3 L 819.025 1699.73 C 791.926 1699.68 763.578 1699.29 736.528 1700.03 C 736.327 1672.72 736.396 1645.41 736.736 1618.1 L 757.754 1617.94 C 756.36 1605.23 758.63 1524.52 756.657 1520.74 C 754.337 1521.94 755.282 1521.16 753.742 1523 C 745.548 1530.84 723.967 1553.15 717.035 1561.82 C 713.029 1564.92 700.133 1579.24 695.981 1583.67 L 696.282 1638.94 L 614.568 1638.88 C 614.09 1611.31 614.046 1583.74 614.436 1556.16 C 631.507 1555.82 649.024 1556.13 666.193 1555.99 C 702.542 1517.15 740.533 1477.85 777.532 1439.64 C 777.797 1426.67 777.786 1413.49 777.883 1400.5 C 711.088 1373.78 639.537 1346.54 573.72 1318.21 L 573.956 1155.62 C 573.943 1119.57 574.58 1080.18 573.501 1044.45 C 563.14 1044.52 552.779 1044.52 542.418 1044.46 C 504.78 1086.01 468.62 1131.67 430.446 1172.32 L 430.353 1228.63 C 422.076 1228.09 409.293 1228.72 400.481 1228.8 L 348.668 1228.91 C 348.346 1201.75 348.635 1174.05 348.648 1146.85 C 365.318 1147.19 382.842 1146.92 399.578 1146.93 C 427.721 1112.7 458.758 1078.11 488.164 1044.85 L 409.275 1044.87 C 409.838 1050.22 409.813 1058.82 409.955 1064.43 C 382.71 1064.62 355.189 1064.07 327.979 1064.72 C 327.179 1038.49 328.058 1009.55 327.937 982.935 L 408.946 983.017 L 409.949 1003.77 C 433.151 1002.84 460.385 1003.54 483.943 1003.67 C 459.307 978.503 433.439 954.409 408.894 929.134 C 399.66 919.627 390.256 910.02 380.527 901.036 L 327.821 901.063 C 326.882 874.959 327.408 845.221 327.967 819.08 z M 788.026 1669.17 L 788.122 1648.25 L 767.035 1648.1 L 767.349 1669.23 L 788.026 1669.17 z M 358.136 849.813 L 358.134 870.394 L 379.085 870.108 C 379.108 867.285 379.396 851.458 378.997 849.773 C 371.907 849.641 365.227 849.461 358.136 849.813 z M 645.048 1587.45 L 645.195 1608.21 C 649.261 1608.24 662.547 1608.66 665.608 1607.75 C 665.612 1600.92 665.679 1594.09 665.808 1587.26 L 645.048 1587.45 z M 379.186 1034.48 L 379.368 1013.8 C 372.343 1013.84 365.194 1013.82 358.182 1013.97 L 358.073 1034.56 C 365.244 1034.34 372.016 1034.02 379.186 1034.48 z M 399.508 1198.22 L 399.468 1177.26 C 393.293 1177.34 384.86 1177.73 378.87 1177.51 L 378.627 1198.68 C 384.289 1198.51 394.177 1197.93 399.508 1198.22 z"/>
<path transform="translate(0,0)" fill="rgb(26,35,45)" d="M 573.501 1044.45 C 614.711 1044.43 656.478 1044 697.64 1044.41 L 753.636 1191.96 C 760.729 1210.64 772.451 1238.96 777.272 1257.34 C 778.398 1261.63 778.055 1299.13 778.053 1305.71 L 777.883 1400.5 C 711.088 1373.78 639.537 1346.54 573.72 1318.21 L 573.956 1155.62 C 573.943 1119.57 574.58 1080.18 573.501 1044.45 z"/>
<path transform="translate(0,0)" fill="rgb(59,69,76)" d="M 655.384 1135.83 C 669.108 1141.07 682.732 1146.56 696.251 1152.31 C 696.255 1166.24 696.169 1180.16 695.991 1194.08 C 702.993 1196.53 709.098 1198.94 715.962 1201.77 C 716.097 1216.44 716.126 1231.11 716.05 1245.78 C 700.621 1238.96 670.412 1226.38 655.07 1221.08 C 654.811 1193.23 654.587 1163.59 655.384 1135.83 z"/>
<path transform="translate(0,0)" fill="rgb(212,50,54)" d="M 1617.65 818.989 L 1699.18 819.024 C 1699.6 846.432 1699.17 873.841 1699.47 901.247 L 1647.95 900.984 C 1628.9 923.501 1609.71 945.905 1590.39 968.196 C 1581 979.047 1568.98 993.742 1559.22 1003.71 C 1585.67 1003.5 1612.13 1003.45 1638.59 1003.54 C 1637.83 996.422 1638.2 990.051 1638.42 982.911 L 1720.23 982.916 C 1720.26 1009.7 1719.87 1038.06 1720.64 1064.71 L 1638.93 1064.93 C 1638.85 1058.24 1638.69 1051.45 1638.86 1044.77 C 1613.69 1044.77 1588.52 1044.62 1563.36 1044.32 C 1592.8 1074.61 1623.97 1103.69 1653.77 1133.68 C 1657.94 1137.87 1663.34 1143.04 1667.98 1146.62 L 1720.08 1146.8 L 1720.92 1228.95 C 1693.71 1228.95 1666.08 1228.7 1638.9 1228.99 C 1638.27 1211.5 1638.32 1193.99 1639.03 1176.49 C 1595.64 1133.48 1547.25 1088.4 1505.24 1044.69 L 1474.94 1044.67 L 1474.84 1318.39 C 1406.91 1345.41 1338.26 1374.17 1270.23 1400.31 C 1257.06 1405.66 1241.86 1411.39 1229.02 1417.1 C 1228.53 1393.24 1228.87 1368.79 1228.71 1344.82 C 1228.64 1333.87 1227.99 1311.27 1229.84 1301.16 C 1230.93 1295.2 1242.66 1274.65 1246.01 1268.53 L 1269.22 1225.81 L 1390.15 1003.17 C 1414.69 1003.97 1451.87 1001.44 1474.85 1003.71 C 1484.8 1004.15 1495.19 1003.8 1505.18 1003.64 C 1543.18 961.569 1579.77 916.642 1617.78 874.429 C 1616.86 861.374 1616.79 831.848 1617.65 818.989 z"/>
<path transform="translate(0,0)" fill="rgb(26,35,45)" d="M 1414.64 1044.55 C 1431.46 1044.3 1458.58 1043.27 1474.94 1044.67 L 1474.84 1318.39 C 1406.91 1345.41 1338.26 1374.17 1270.23 1400.31 C 1268.59 1379.76 1269.92 1332.92 1270.91 1311.06 C 1271.05 1307.82 1284.27 1284.37 1286.85 1279.64 L 1313.54 1230.54 C 1346.6 1169.67 1380.55 1104.49 1414.64 1044.55 z"/>
<path transform="translate(0,0)" fill="rgb(254,254,255)" d="M 1648.56 849.904 L 1669.12 849.793 L 1669.13 870.116 L 1648.7 870.114 L 1648.56 849.904 z"/>
<path transform="translate(0,0)" fill="rgb(254,254,255)" d="M 1669.64 1013.95 L 1690 1014 L 1689.97 1033.96 L 1669.51 1034.11 C 1669.4 1027.52 1669.58 1020.57 1669.64 1013.95 z"/>
<path transform="translate(0,0)" fill="rgb(254,254,255)" d="M 1669.84 1178.03 L 1690.01 1177.9 L 1690.05 1198 L 1669.84 1198.07 L 1669.84 1178.03 z"/>
</svg>